<mxfile host="app.diagrams.net" modified="2023-09-11T07:36:27.277Z" agent="Mozilla/5.0 (Windows NT 10.0; Win64; x64) AppleWebKit/537.36 (KHTML, like Gecko) Chrome/115.0.0.0 Safari/537.36" version="21.5.2" etag="RzRhKAv5HYl7zKEg520w" type="github">
  <diagram name="Page-1" id="MxaVvP3JYxw7kLOtCnC5">
    <mxGraphModel>
      <root>
        <mxCell id="0" />
        <mxCell id="1" parent="0" />
      </root>
    </mxGraphModel>
  </diagram>
</mxfile>
